<svg width="46" height="46" viewBox="0 0 46 46" fill="none" xmlns="http://www.w3.org/2000/svg">
<g id="Asset 1" clip-path="url(#clip0_5_27)">
<g id="Layer 1">
<path id="Vector" d="M1.39486 29.2721C1.46372 29.5006 1.52944 29.7228 1.60456 29.945C3.41983 35.5348 7.26946 40.1293 12.4461 42.8772C15.6761 44.5924 19.3129 45.5 22.9591 45.5C25.0779 45.5 27.1905 45.1964 29.2343 44.6111C29.4659 44.5392 29.685 44.4766 29.9072 44.4046C32.0886 43.6972 34.1355 42.6769 35.9789 41.3687C36.1949 41.2185 36.4328 41.0463 36.7176 40.8304C37.669 40.1011 38.5548 39.2968 39.3591 38.4423C39.8035 37.976 40.2386 37.4752 40.6517 36.9526C41.4905 35.8884 42.2354 34.7429 42.8707 33.5474C45.6468 28.3175 46.2478 22.3021 44.5639 16.6121C42.877 10.9316 39.1087 6.21811 33.9508 3.34497C33.8163 3.26986 33.6817 3.19161 33.544 3.11963C33.4094 3.04764 33.2717 2.97566 33.134 2.90993C29.9635 1.31061 26.5677 0.5 23.031 0.5C14.662 0.5 7.0316 5.082 3.1225 12.4495C2.48715 13.6451 1.95822 14.9064 1.54509 16.199C1.34478 16.8312 1.17265 17.4728 1.03181 18.105C0.778293 19.2474 0.609285 20.4305 0.53417 21.6198C0.518521 21.9828 0.506002 22.2708 0.502872 22.5431C0.455925 24.7996 0.753255 27.0656 1.39173 29.2721H1.39486ZM40.3481 24.8779C40.5359 24.5054 40.6799 24.1987 40.8113 23.8982C41.9756 21.2254 42.37 18.3022 42.0226 15.4604C44.2009 20.9406 43.938 27.1908 41.0711 32.5897C40.7581 33.1843 40.4107 33.7633 40.0477 34.3079C39.7065 34.8212 39.3466 35.3126 38.9741 35.782C38.0696 36.915 37.0399 37.951 35.9195 38.8617C35.666 39.0683 35.45 39.2342 35.2497 39.3813C33.4407 40.7302 31.4408 41.763 29.2937 42.4579C29.084 42.5298 28.8681 42.5893 28.6584 42.6519C26.8056 43.1902 24.887 43.4563 22.9622 43.4563C19.6477 43.4563 16.3427 42.6331 13.4038 41.0745C9.30695 38.8993 6.12083 35.4534 4.27739 31.2438C3.99258 30.596 4.39319 29.8448 5.088 29.7165C6.31175 29.4912 7.55114 29.3785 8.79366 29.3785C12.1018 29.3785 15.4069 30.2016 18.3458 31.7603C19.4412 32.3424 20.5929 32.7931 21.7666 33.1061C23.1187 33.466 24.5114 33.6506 25.9136 33.6506C28.8869 33.6506 31.8038 32.8338 34.3515 31.3002C34.558 31.175 34.7583 31.0467 34.9586 30.9121C37.1714 29.438 39.0054 27.4099 40.2605 25.0437L40.3481 24.8779ZM32.4298 4.84414C32.4579 4.85666 32.483 4.87543 32.5143 4.88795C32.5393 4.89734 32.5644 4.91299 32.5894 4.92551C32.6176 4.93803 32.6395 4.95368 32.6645 4.9662C32.6927 4.98185 32.7177 4.9975 32.7459 5.01315C34.0541 5.81124 34.5173 7.50132 33.7944 8.85965C33.2873 9.8111 32.2983 10.4058 31.2185 10.4058C30.7397 10.4058 30.2827 10.29 29.8602 10.0646C28.4424 9.31347 27.9041 7.54827 28.6584 6.13048C29.1654 5.17589 30.1513 4.58437 31.2342 4.58437C31.6536 4.58437 32.0542 4.672 32.4298 4.84414ZM23.3127 7.79865C22.9215 7.7298 22.5303 7.6672 22.1359 7.62025C23.3878 5.70483 25.3878 4.42475 27.6412 4.08673C27.3345 4.4091 27.0747 4.77215 26.8588 5.17902C26.7461 5.38872 26.6522 5.6078 26.5708 5.83002C26.0826 7.1946 24.7399 8.05842 23.3127 7.80178V7.79865ZM23.5068 3.49207C22.0326 4.41223 20.8026 5.71422 19.9639 7.29163C19.9357 7.34483 19.9106 7.39804 19.8825 7.45124C19.701 7.44812 19.5194 7.44499 19.341 7.44499C18.086 7.44499 16.8372 7.5514 15.6041 7.75796C17.701 5.5233 20.4834 4.02413 23.5068 3.49207ZM18.5523 3.03199C16.7965 3.93024 15.2097 5.1446 13.8827 6.62185C12.7528 7.8769 11.3444 8.844 9.81084 9.55446C8.37114 10.2242 7.00969 11.0411 5.74526 11.9926C8.67786 7.39491 13.2912 4.19627 18.5523 3.03199ZM2.797 19.7294C3.08494 17.936 3.97067 16.2772 5.29457 15.0316C7.36022 13.0911 9.82336 11.5951 12.54 10.6436C12.8999 10.5184 13.2004 10.4214 13.4758 10.34C15.3787 9.77354 17.3474 9.48247 19.3223 9.48247C19.5507 9.48247 19.7761 9.48873 20.0045 9.49499C20.2518 9.49812 20.474 9.50751 20.69 9.52629C23.5881 9.71721 26.358 10.509 28.9275 11.8768C29.6286 12.2492 30.4079 12.4401 31.2029 12.4401C31.2686 12.4401 31.3344 12.4401 31.4032 12.437C33.1621 12.3681 34.7677 11.3635 35.594 9.8111L35.6002 9.79858C35.8162 9.38858 36.4328 9.45118 36.5548 9.89874C37.0744 11.8204 36.8741 13.9174 35.9038 15.7514C35.8663 15.8234 35.8287 15.8954 35.7849 15.9611L35.7786 15.9736L35.7724 15.9862C35.6566 16.1865 35.5408 16.3711 35.4218 16.5401C33.9258 18.7091 31.4595 19.9985 28.8211 19.9985C27.5254 19.9985 26.2328 19.6762 25.0842 19.0627C24.1797 18.5839 23.2439 18.1645 22.2987 17.8202C19.8168 16.9063 17.219 16.44 14.5744 16.44C13.3788 16.44 12.1738 16.537 10.9939 16.7279C10.7623 16.7623 10.5307 16.8062 10.296 16.8468C7.65129 17.3601 5.088 18.3523 2.79387 19.7482C2.79387 19.7388 2.79387 19.7294 2.797 19.72V19.7294ZM2.54662 22.3678C4.91899 20.6589 7.68572 19.4571 10.5682 18.8812C10.7748 18.8405 10.9939 18.803 11.2161 18.7685C12.3303 18.5807 13.4602 18.49 14.5775 18.49C17.8826 18.49 21.1876 19.3131 24.1233 20.8717C25.0873 21.3819 26.1107 21.7324 27.1655 21.9046C27.7101 21.9953 28.2672 22.0392 28.8243 22.0392C32.0354 22.0392 35.0776 20.493 36.9554 17.9047C37.1057 17.7107 37.2465 17.4947 37.3905 17.2569C37.5 17.0847 37.6033 16.9001 37.7066 16.7091C38.5454 15.1255 38.9366 13.3728 38.8677 11.6295C40.3794 14.9846 40.5484 18.8468 39.2245 22.3897C39.0993 22.7215 38.9773 23.0188 38.8458 23.2911C38.7238 23.5634 38.5986 23.8294 38.4577 24.086C37.3811 26.1173 35.8068 27.8699 33.9102 29.1532C33.7412 29.2721 33.5596 29.3879 33.3593 29.5131C31.1153 30.8871 28.5457 31.6132 25.9167 31.6132C23.6226 31.6132 21.3316 31.0435 19.2972 29.9606C18.2206 29.391 17.1032 28.9028 15.9671 28.5241C13.6542 27.7354 11.2349 27.3379 8.78428 27.3379C6.89076 27.3379 5.00663 27.5757 3.16945 28.0483C2.69372 26.1892 2.48402 24.2801 2.54036 22.3678H2.54662Z" fill="white"/>
</g>
</g>
<defs>
<clipPath id="clip0_5_27">
<rect width="45" height="45" fill="white" transform="translate(0.5 0.5)"/>
</clipPath>
</defs>
</svg>
