<svg width="229" height="70" viewBox="0 0 229 70" fill="none" xmlns="http://www.w3.org/2000/svg">
<g id="Layer 1">
<g id="Group">
<g id="Group_2">
<path id="Vector" d="M11.8848 58.7412C10.2684 58.9683 8.72923 58.8432 7.26431 58.3698C5.80295 57.8958 4.56366 57.0946 3.55404 55.9684L5.52914 53.0606C7.15423 54.8284 9.11757 55.5488 11.4196 55.2252C12.3717 55.0914 13.1145 54.7571 13.6484 54.2257C14.1859 53.6938 14.4051 53.0882 14.3101 52.4118C14.1814 51.4962 13.4161 50.8199 12.0178 50.3824C11.6739 50.2809 10.9428 50.105 9.82032 49.8516C8.6955 49.5812 7.81493 49.3218 7.17911 49.0767C4.7982 48.1432 3.46308 46.6343 3.1702 44.5503C2.93638 42.8866 3.38898 41.4156 4.52752 40.1338C5.64637 38.8409 7.248 38.0444 9.34047 37.7504C12.0795 37.3654 14.4629 37.9815 16.4942 39.5981L14.705 42.5913C14.0457 42.0499 13.2812 41.6627 12.4045 41.4306C11.5277 41.1984 10.6897 41.1385 9.8904 41.2509C9.03422 41.3712 8.37287 41.6662 7.90586 42.1325C7.43884 42.5987 7.24845 43.1515 7.33872 43.7938C7.45971 44.6547 8.13864 45.2839 9.38004 45.6877L11.7427 46.3625C12.6869 46.5851 13.5732 46.8333 14.4085 47.1061C16.8877 47.9143 18.2823 49.4079 18.5881 51.5841C18.8402 53.3776 18.3423 54.9386 17.0948 56.2705C15.8474 57.6025 14.1118 58.4247 11.8843 58.7377L11.8848 58.7412Z" fill="black"/>
<path id="Vector_2" d="M24.4788 56.6368L20.7699 57.158L17.8397 36.3085L21.4633 35.7993L22.57 43.6738C22.9272 42.9164 23.5164 42.2622 24.3313 41.7192C25.1461 41.1762 26.0862 40.8281 27.152 40.6783C28.8075 40.4456 30.3008 40.7862 31.632 41.6999C32.9632 42.6137 33.7675 44.0579 34.045 46.0325L35.3212 55.113L31.6123 55.6342L30.4711 47.5137C30.2987 46.2873 29.8592 45.3771 29.1552 44.7758C28.4512 44.1745 27.5755 43.9492 26.5275 44.0965C25.4262 44.2513 24.5787 44.7431 23.9852 45.5721C23.3916 46.401 23.181 47.4026 23.3452 48.571L24.4788 56.6368Z" fill="black"/>
<path id="Vector_3" d="M44.2423 54.225C42.0753 54.5295 40.2849 54.1889 38.8747 53.2026C37.4645 52.2164 36.6161 50.6912 36.3257 48.6244L35.1071 39.9539L38.8444 39.4287L40.063 48.0992C40.2046 49.107 40.6088 49.8688 41.2728 50.3921C41.9369 50.9154 42.7749 51.1042 43.7838 50.9624C44.7928 50.8206 45.5711 50.4047 46.0688 49.7181C46.5629 49.032 46.7414 48.1883 46.5997 47.1805L45.3812 38.51L49.1185 37.9848L50.337 46.6552C50.6275 48.7221 50.2324 50.4219 49.1487 51.7587C48.065 53.0955 46.4307 53.9174 44.2423 54.225Z" fill="black"/>
<path id="Vector_4" d="M56.9706 52.0703L53.2617 52.5916L51.1683 37.6966L54.7351 37.1954L55.0241 39.252C55.7477 37.492 57.0682 36.4738 58.9901 36.2037C59.6367 36.1128 60.2693 36.1284 60.8868 36.2437L61.0562 39.7176C60.36 39.6099 59.7493 39.5947 59.2164 39.6696C58.0192 39.8378 57.1218 40.3611 56.5274 41.2355C55.9335 42.1132 55.7416 43.3003 55.9524 44.8L56.9741 52.0698L56.9706 52.0703Z" fill="black"/>
<path id="Vector_5" d="M63.1563 34.1933C62.4707 34.2897 61.873 34.1612 61.3552 33.802C60.8378 33.4462 60.5346 32.9384 60.442 32.279C60.3493 31.6197 60.5113 31.0709 60.9162 30.575C61.321 30.0792 61.8557 29.7846 62.5235 29.6907C63.1914 29.5968 63.7759 29.7342 64.284 30.1017C64.7921 30.4692 65.0908 30.9707 65.1811 31.613C65.2713 32.2552 65.1258 32.8436 64.7372 33.3267C64.3487 33.8098 63.8207 34.1 63.1563 34.1933ZM65.233 35.72L67.3263 50.6149L63.589 51.1402L61.4957 36.2452L65.233 35.72Z" fill="black"/>
<path id="Vector_6" d="M84.3005 48.2294L79.6786 48.8789L73.4574 43.1237L72.4558 44.2713L73.2307 49.7851L69.5218 50.3064L66.5916 29.4569L70.3005 28.9357L71.8854 40.2128L77.0986 34.0524L81.8342 33.3869L75.71 40.5148L84.301 48.2328L84.3005 48.2294Z" fill="black"/>
<path id="Vector_7" d="M97.1606 38.5069C97.2274 38.9818 97.2627 39.5168 97.2707 40.1149L85.4584 41.775C85.8564 42.8025 86.4998 43.5656 87.3957 44.0633C88.2916 44.561 89.3829 44.7211 90.676 44.5394C92.5589 44.2748 94.1885 43.5232 95.5685 42.2841L97.4122 44.6274C95.6828 46.2674 93.534 47.2696 90.9691 47.6301C89.5623 47.8278 88.281 47.7849 87.1249 47.498C85.9692 47.2145 85.0087 46.7468 84.2366 46.0993C83.4646 45.4519 82.8515 44.6984 82.3903 43.8401C81.9291 42.9817 81.6303 42.0413 81.4863 41.0164C81.1675 38.748 81.6493 36.7886 82.9276 35.1353C84.222 33.4415 86.058 32.4309 88.4346 32.0969C90.6585 31.7844 92.5903 32.2027 94.2263 33.3523C95.8599 34.4849 96.8365 36.2009 97.1606 38.5069ZM88.8547 35.0862C87.7712 35.2384 86.8933 35.6684 86.2287 36.3784C85.5606 37.0889 85.1789 37.9822 85.0767 39.0591L93.3506 37.8962C93.0514 36.8757 92.4952 36.1143 91.6784 35.6125C90.8616 35.1107 89.9205 34.9364 88.8547 35.0862Z" fill="black"/>
<path id="Vector_8" d="M103.332 45.5547L99.6228 46.0759L97.5294 31.181L101.181 30.6678L101.474 32.7517C101.786 31.9241 102.337 31.2335 103.131 30.6724C103.926 30.1148 104.882 29.754 106.005 29.5962C107.699 29.358 109.211 29.6961 110.542 30.6099C111.873 31.5237 112.677 32.9679 112.955 34.9425L114.231 44.0229L110.494 44.5481L109.356 36.455C109.184 35.2286 108.743 34.3115 108.038 33.7034C107.334 33.0953 106.457 32.8632 105.409 33.0104C104.304 33.1657 103.453 33.6615 102.854 34.5017C102.255 35.3419 102.038 36.3479 102.202 37.5162L103.332 45.5547Z" fill="black"/>
</g>
<g id="Group_3">
<path id="Vector_9" d="M179.875 34.7971L165.125 36.8702L162.276 16.598L166.184 16.0488L168.528 32.727L179.37 31.2032L179.875 34.7971Z" fill="black"/>
<path id="Vector_10" d="M190.514 20.0429L190.248 18.1502L193.786 17.653L195.88 32.5479L192.341 33.0452L192.083 31.2072C190.939 32.8591 189.357 33.8269 187.343 34.1099C185.119 34.4225 183.177 33.929 181.52 32.6325C179.864 31.336 178.879 29.5618 178.563 27.3139C178.247 25.066 178.708 23.1164 179.951 21.4682C181.209 19.8003 182.943 18.8111 185.149 18.501C187.128 18.2229 188.918 18.7378 190.514 20.0429ZM191.378 25.5721C191.201 24.3115 190.624 23.2987 189.644 22.541C188.665 21.7834 187.509 21.4964 186.18 21.6832C184.851 21.8699 183.815 22.4649 183.083 23.4632C182.37 24.4761 182.105 25.6072 182.28 26.8507C182.455 28.0942 183.028 29.132 183.989 29.9131C184.969 30.6708 186.124 30.9543 187.457 30.767C188.789 30.5798 189.818 29.9892 190.551 28.9909C191.284 27.9926 191.558 26.8532 191.378 25.5721Z" fill="black"/>
<path id="Vector_11" d="M204.664 15.7585C206.87 15.4484 208.802 15.9434 210.458 17.2399C212.154 18.5309 213.154 20.2821 213.465 22.4959C213.776 24.7096 213.292 26.6519 212.023 28.3769C210.768 30.0653 209.036 31.0648 206.829 31.3748C204.833 31.6554 203.068 31.1092 201.539 29.739L201.816 31.7136L198.164 32.2269L195.234 11.3774L198.943 10.8561L200.049 18.7306C201.147 17.0296 202.685 16.04 204.664 15.7619L204.664 15.7585ZM209.667 23.0018C209.49 21.7412 208.921 20.7376 207.965 19.9941C207.003 19.2339 205.869 18.9474 204.558 19.1316C203.247 19.3159 202.186 19.9109 201.489 20.9042C200.771 21.883 200.505 23.0004 200.682 24.2645C200.86 25.5285 201.43 26.5457 202.391 27.3268C203.351 28.0699 204.494 28.3447 205.827 28.1574C207.159 27.9702 208.153 27.3915 208.868 26.4166C209.58 25.4037 209.844 24.2658 209.667 23.0018Z" fill="black"/>
<path id="Vector_12" d="M220.898 29.4255C218.216 29.8025 215.995 29.1077 214.233 27.3418L216.035 24.852C216.642 25.439 217.347 25.8659 218.15 26.1364C218.952 26.4068 219.735 26.4884 220.495 26.3815C221.16 26.2882 221.686 26.061 222.073 25.6999C222.457 25.3394 222.622 24.9365 222.56 24.4993C222.478 23.9151 222.021 23.4951 221.191 23.2355C220.922 23.1236 220.262 22.9655 219.204 22.7588C218.263 22.5567 217.568 22.3826 217.124 22.2394C215.278 21.6592 214.234 20.5205 213.995 18.8192C213.812 17.521 214.178 16.3861 215.089 15.4185C216 14.4509 217.303 13.8497 218.994 13.6121C221.183 13.3045 223.055 13.7869 224.61 15.0594L222.99 17.6072C221.837 16.7241 220.607 16.3745 219.293 16.5592C218.721 16.6396 218.285 16.8367 217.981 17.1477C217.677 17.4621 217.549 17.818 217.606 18.2211C217.699 18.8804 218.215 19.3026 219.153 19.4877C221.537 20.0305 222.854 20.3472 223.099 20.4451C224.979 21.1145 226.03 22.2523 226.256 23.8614C226.447 25.2142 226.054 26.4155 225.075 27.4693C224.096 28.5196 222.706 29.1714 220.898 29.4255Z" fill="black"/>
</g>
<path id="Vector_13" d="M120.163 39.472C120.25 39.6549 120.334 39.8348 120.427 40.0098C122.661 44.4615 126.548 47.8345 131.376 49.5006C134.387 50.5405 137.656 50.8545 140.825 50.4092C142.668 50.15 144.466 49.6396 146.177 48.8975C146.371 48.811 146.555 48.7294 146.738 48.6409C148.552 47.7833 150.212 46.6791 151.661 45.3607C151.831 45.2078 152.017 45.0354 152.237 44.8233C152.979 44.0954 153.656 43.3175 154.251 42.5022C154.584 42.0584 154.901 41.5852 155.199 41.1009C155.803 40.1104 156.318 39.059 156.728 37.9841C158.53 33.2717 158.345 28.1696 156.209 23.617C154.074 19.0711 150.245 15.5925 145.424 13.821C145.298 13.7759 145.172 13.7275 145.042 13.683C144.917 13.6414 144.788 13.5969 144.659 13.5558C141.717 12.6035 138.666 12.3391 135.589 12.7715C128.31 13.7945 122.216 18.5563 119.682 25.1971C119.268 26.2759 118.958 27.3925 118.751 28.5225C118.651 29.0765 118.577 29.6338 118.528 30.1808C118.441 31.1649 118.435 32.1761 118.511 33.1792C118.539 33.4853 118.563 33.7293 118.594 33.9548C118.817 35.8466 119.346 37.7056 120.159 39.4725L120.163 39.472ZM153.521 31.0389C153.64 30.7051 153.732 30.4309 153.807 30.1626C154.505 27.7826 154.506 25.2916 153.867 22.9602C156.405 27.2787 156.912 32.5341 155.052 37.4009C154.849 37.9382 154.618 38.4618 154.366 38.964C154.132 39.4359 153.877 39.8898 153.605 40.3286C152.953 41.3852 152.18 42.3788 151.31 43.2779C151.114 43.4831 150.945 43.6462 150.788 43.7937C149.377 45.1417 147.757 46.2507 145.97 47.0941C145.794 47.1781 145.616 47.2553 145.439 47.3325C143.892 48.0062 142.254 48.4664 140.581 48.7015C137.7 49.1065 134.729 48.8237 131.988 47.8782C128.169 46.5615 124.997 44.0671 122.896 40.774C122.575 40.2653 122.831 39.5883 123.424 39.397C124.46 39.0598 125.527 38.8158 126.607 38.664C129.484 38.2596 132.455 38.5423 135.192 39.4884C136.213 39.8397 137.268 40.0781 138.327 40.1939C139.546 40.3293 140.779 40.3128 141.997 40.1415C144.583 39.778 147.02 38.7388 149.057 37.1427C149.223 37.0114 149.382 36.881 149.54 36.7438C151.289 35.2404 152.649 33.3178 153.459 31.1905L153.517 31.0394L153.521 31.0389ZM144.278 15.2536C144.304 15.2604 144.327 15.2711 144.358 15.2807C144.38 15.2846 144.403 15.2952 144.426 15.3025C144.452 15.3092 144.472 15.3204 144.495 15.3277C144.521 15.3378 144.544 15.3451 144.571 15.3587C145.802 15.8651 146.402 17.223 145.937 18.4485C145.608 19.3064 144.818 19.9226 143.88 20.0544C143.464 20.1128 143.053 20.0731 142.657 19.9371C141.336 19.4817 140.66 18.0718 141.15 16.794C141.479 15.9327 142.266 15.3204 143.207 15.1881C143.569 15.1372 143.928 15.1634 144.278 15.2571L144.278 15.2536ZM136.695 18.838C136.346 18.8278 135.998 18.8245 135.651 18.8315C136.513 17.0765 138.104 15.7625 140.021 15.2039C139.793 15.5112 139.608 15.8472 139.471 16.2114C139.4 16.4025 139.34 16.5955 139.299 16.7895C139.036 17.99 137.969 18.8785 136.699 18.8375L136.695 18.838ZM136.36 15.2133C135.185 16.1622 134.269 17.4023 133.723 18.8238C133.704 18.8717 133.689 18.9191 133.67 18.967C133.514 18.989 133.353 19.0046 133.201 19.0261C132.11 19.1794 131.035 19.421 129.987 19.746C131.547 17.6211 133.79 16.0274 136.36 15.2133ZM131.997 15.4363C130.575 16.4026 129.339 17.6109 128.358 19.0099C127.525 20.1965 126.413 21.1784 125.165 21.96C123.993 22.696 122.902 23.5461 121.917 24.4963C123.927 20.2945 127.562 17.0559 132.001 15.4392L131.997 15.4363ZM120.26 31.3238C120.302 29.7886 120.874 28.2938 121.882 27.0895C123.452 25.2142 125.415 23.6633 127.669 22.5347C127.967 22.3849 128.215 22.2699 128.447 22.1676C130.036 21.4601 131.711 20.9774 133.43 20.7357C133.629 20.7078 133.825 20.6871 134.025 20.6626C134.241 20.6321 134.435 20.6154 134.625 20.6026C137.166 20.4092 139.672 20.7329 142.067 21.5633C142.722 21.7883 143.423 21.8535 144.112 21.7567C144.169 21.7487 144.229 21.7402 144.286 21.7322C145.809 21.4589 147.084 20.4228 147.622 19.0233L147.628 19.012C147.768 18.6405 148.312 18.6198 148.468 18.9811C149.145 20.5268 149.217 22.3038 148.59 23.9526C148.567 24.0152 148.543 24.0812 148.512 24.1447L148.507 24.156L148.501 24.1672C148.425 24.3486 148.344 24.5168 148.261 24.6748C147.216 26.6715 145.222 28.0527 142.927 28.3752C141.8 28.5335 140.636 28.4218 139.566 28.0497C138.725 27.7603 137.858 27.5233 136.997 27.3517C134.733 26.8895 132.419 26.8176 130.117 27.1411C129.076 27.2874 128.043 27.5162 127.035 27.8215C126.837 27.8773 126.643 27.9429 126.442 28.006C124.204 28.7595 122.089 29.8998 120.26 31.3482C120.259 31.3414 120.258 31.3346 120.26 31.3238ZM120.353 33.5578C122.217 31.8397 124.48 30.4939 126.921 29.6631C127.098 29.6035 127.281 29.5463 127.473 29.4915C128.421 29.198 129.391 28.9851 130.364 28.8482C133.238 28.4443 136.209 28.7271 138.943 29.6736C139.841 29.9828 140.774 30.1479 141.707 30.1665C142.191 30.1752 142.679 30.1449 143.166 30.0765C145.958 29.6841 148.42 28.0212 149.749 25.6257C149.858 25.4466 149.957 25.2447 150.05 25.0295C150.125 24.8726 150.193 24.7064 150.259 24.5333C150.801 23.1055 150.936 21.5919 150.671 20.1451C152.38 22.7651 152.983 25.9759 152.245 29.1001C152.174 29.3957 152.102 29.6567 152.023 29.8976C151.949 30.1415 151.87 30.3756 151.78 30.6112C151.08 32.4409 149.919 34.1021 148.421 35.4031C148.286 35.5231 148.143 35.6408 147.984 35.7711C146.195 37.1931 144.042 38.1158 141.761 38.4363C139.768 38.7164 137.708 38.5182 135.812 37.865C134.807 37.5185 133.78 37.2483 132.748 37.0693C130.644 36.6926 128.491 36.6573 126.363 36.9564C124.718 37.1875 123.105 37.6163 121.565 38.2368C120.935 36.7403 120.526 35.1709 120.35 33.5617L120.353 33.5578Z" fill="black"/>
</g>
</g>
</svg>
